Coordinates
version=1
nRows=24
nColumns=38
inDegrees=no

Units are S.I. units (second, meters, Newtons, ...)
If the header above contains a line with 'inDegrees', this indicates whether rotational values are in degrees (yes) or radians (no).

endheader
time	pelvis_tilt	pelvis_list	pelvis_rotation	pelvis_tx	pelvis_ty	pelvis_tz	hip_flexion_r	hip_adduction_r	hip_rotation_r	knee_angle_r	ankle_angle_r	subtalar_angle_r	mtp_angle_r	hip_flexion_l	hip_adduction_l	hip_rotation_l	knee_angle_l	ankle_angle_l	subtalar_angle_l	mtp_angle_l	lumbar_extension	lumbar_bending	lumbar_rotation	arm_flex_r	arm_add_r	arm_rot_r	elbow_flex_r	pro_sup_r	wrist_flex_r	wrist_dev_r	arm_flex_l	arm_add_l	arm_rot_l	elbow_flex_l	pro_sup_l	wrist_flex_l	wrist_dev_l
0.54	-0.373892	1.326	-1.4234	0.860481	1.2559	0.980958	-0.251497	0.0771279	-0.0940969	0.343868	0.248863	0	0	0.19006	-0.155696	-0.365874	0.26097	0.194042	0	0	-0.424744	0.061131	0.188457	0.484753	-0.393425	0.196198	1.00341	0.923262	0	0	0.421179	-0.37733	0.153989	0.992043	0.827251	0	0
0.55	-0.398095	1.33217	-1.39502	0.86202	1.24418	0.978701	-0.257969	0.0786602	-0.10251	0.342935	0.259709	0	0	0.194034	-0.150028	-0.363833	0.196173	0.190417	0	0	-0.41763	0.0679612	0.18508	0.487007	-0.394822	0.197312	1.00258	0.922889	0	0	0.423974	-0.377111	0.157491	0.989383	0.822838	0	0
0.56	-0.422427	1.33746	-1.36548	0.863754	1.23216	0.976329	-0.265522	0.0799889	-0.111682	0.342498	0.271776	0	0	0.189798	-0.14049	-0.343753	0.11839	0.178871	0	0	-0.41078	0.0750595	0.179781	0.489203	-0.395638	0.198124	1.00114	0.929426	0	0	0.424913	-0.376542	0.157391	0.988381	0.823889	0	0
0.57	-0.464473	1.34388	-1.32034	0.8652	1.21991	0.973531	-0.270852	0.0848736	-0.115848	0.342029	0.281871	0	0	0.18985	-0.138231	-0.330937	0.0542281	0.179184	0	0	-0.400845	0.0848286	0.176443	0.490739	-0.396647	0.200556	1.00057	0.929609	0	0	0.423731	-0.376428	0.156421	0.989046	0.818347	0	0
0.58	-0.501162	1.34828	-1.2768	0.86611	1.20782	0.970489	-0.276178	0.0972135	-0.110266	0.345483	0.28606	0	0	0.189267	-0.137519	-0.306493	0	0.172307	0	0	-0.392046	0.0926405	0.171126	0.491727	-0.397857	0.204577	0.999845	0.92864	0	0	0.424026	-0.377245	0.156454	0.990493	0.812918	0	0
0.59	-0.552107	1.35066	-1.22159	0.867355	1.19601	0.967381	-0.281921	0.105364	-0.11158	0.350057	0.295738	0	0	0.206499	-0.146855	-0.293768	0	0.186091	0	0	-0.384592	0.10327	0.16761	0.493908	-0.400418	0.214114	0.999952	0.911617	0	0	0.424632	-0.379776	0.159268	0.992448	0.802077	0	0
0.6	-0.606806	1.35351	-1.16748	0.867875	1.18368	0.964348	-0.284805	0.111729	-0.109848	0.358742	0.306149	0	0	0.221495	-0.1571	-0.28408	0	0.198138	0	0	-0.3749	0.11262	0.168356	0.494662	-0.402166	0.220496	0.999603	0.90701	0	0	0.424038	-0.382127	0.161359	0.992288	0.807021	0	0
0.61	-0.662017	1.35634	-1.11449	0.868391	1.17109	0.961191	-0.285312	0.116923	-0.105834	0.371813	0.315839	0	0	0.234259	-0.167166	-0.275223	0	0.208683	0	0	-0.364603	0.120798	0.169938	0.494943	-0.403045	0.226117	0.999635	0.90356	0	0	0.423026	-0.384866	0.164134	0.993189	0.810045	0	0
0.62	-0.713709	1.35907	-1.06662	0.86884	1.1581	0.958042	-0.284013	0.119799	-0.101148	0.38937	0.325543	0	0	0.243545	-0.175855	-0.268219	0	0.218806	0	0	-0.354018	0.127521	0.171706	0.494493	-0.402672	0.230124	1.00023	0.902616	0	0	0.420036	-0.387836	0.163435	0.99513	0.817537	0	0
0.63	-0.754853	1.36141	-1.03062	0.869265	1.14471	0.955028	-0.282526	0.119316	-0.0959658	0.410717	0.335237	0	0	0.247246	-0.181738	-0.26252	0	0.228907	0	0	-0.344469	0.131725	0.173274	0.492898	-0.400804	0.230676	1.00165	0.90731	0	0	0.41575	-0.390263	0.159732	0.997966	0.827488	0	0
0.64	-0.795035	1.37135	-1.00438	0.869048	1.13096	0.951634	-0.268001	0.110551	-0.0862629	0.447084	0.351682	0	0	0.251703	-0.183844	-0.27236	0	0.235857	0	0	-0.328048	0.128379	0.183811	0.482121	-0.391269	0.200235	1.00637	0.914949	0	0	0.411692	-0.387515	0.149074	0.997419	0.858226	0	0
0.65	-0.79176	1.36454	-1.00707	0.870068	1.11663	0.949696	-0.283437	0.108378	-0.0810976	0.460452	0.351236	0	0	0.233734	-0.182853	-0.255723	0	0.237035	0	0	-0.330425	0.131001	0.177726	0.484592	-0.396325	0.228004	1.00882	0.903483	0	0	0.407848	-0.397063	0.159145	1.00492	0.820147	0	0
0.66	-0.793001	1.36592	-1.01394	0.870332	1.10189	0.947278	-0.285349	0.0992269	-0.0708708	0.487738	0.357113	0	0	0.217922	-0.179154	-0.254785	0	0.23111	0	0	-0.324183	0.127122	0.181819	0.478042	-0.394774	0.225823	1.0137	0.897056	0	0	0.404618	-0.402039	0.163514	1.00754	0.808167	0	0
0.67	-0.785569	1.36826	-1.03079	0.8705	1.08652	0.944856	-0.286269	0.0872284	-0.0600272	0.517816	0.361664	0	0	0.19814	-0.172629	-0.256386	0	0.22347	0	0	-0.316654	0.120725	0.187341	0.470783	-0.393267	0.222778	1.01699	0.899963	0	0	0.401291	-0.406579	0.170285	1.01038	0.786166	0	0
0.68	-0.766863	1.37157	-1.06022	0.870469	1.07105	0.942485	-0.285438	0.0714576	-0.0500144	0.55223	0.363932	0	0	0.176273	-0.163056	-0.261901	0	0.22343	0	0	-0.308316	0.111395	0.193858	0.463914	-0.391986	0.221314	1.01793	0.904481	0	0	0.397131	-0.409874	0.172885	1.01232	0.783089	0	0
0.69	-0.741937	1.37377	-1.09905	0.870832	1.05502	0.940353	-0.284094	0.0459512	-0.047106	0.590056	0.367383	0	0	0.149619	-0.150216	-0.26852	0	0.227478	0	0	-0.30086	0.101965	0.201866	0.458139	-0.390865	0.222049	1.01653	0.902226	0	0	0.391006	-0.412777	0.173868	1.01482	0.778753	0	0
0.7	-0.693836	1.37624	-1.15866	0.87098	1.04002	0.938401	-0.27804	0.0231739	-0.0372211	0.637495	0.361886	0	0	0.137551	-0.13762	-0.285693	0	0.218282	0	0	-0.296421	0.0868244	0.209236	0.45298	-0.387628	0.218617	1.01289	0.909167	0	0	0.387474	-0.414015	0.1696	1.01605	0.802098	0	0
0.71	-0.651529	1.3795	-1.20801	0.871698	1.02571	0.936737	-0.265056	0.00426805	-0.0234109	0.690593	0.345547	0	0	0.140146	-0.129543	-0.309112	0.0204211	0.185892	0	0	-0.292449	0.0731371	0.213653	0.447521	-0.383663	0.211939	1.01053	0.909398	0	0	0.386409	-0.414561	0.166947	1.01743	0.819709	0	0
0.72	-0.605682	1.38363	-1.25581	0.873001	1.01216	0.935938	-0.246465	-0.00892467	0.000337347	0.746468	0.315242	0	0	0.15258	-0.124094	-0.327347	0.0623458	0.135042	0	0	-0.290716	0.0592928	0.215803	0.440982	-0.379214	0.19828	1.01052	0.909817	0	0	0.389971	-0.412935	0.166768	1.01686	0.839829	0	0
0.73	-0.552792	1.38723	-1.3087	0.874375	0.999091	0.936098	-0.224867	-0.0184005	0.0307072	0.802799	0.271764	0	0	0.172455	-0.12214	-0.352253	0.128646	0.112075	0	0	-0.291361	0.0450418	0.217498	0.438099	-0.381057	0.201293	1.01085	0.887671	0	0	0.39725	-0.416932	0.189072	1.02028	0.769199	0	0
0.74	-0.484305	1.39336	-1.3799	0.875224	0.98611	0.936286	-0.193179	-0.0332795	0.0547824	0.869221	0.222364	0	0	0.193934	-0.119316	-0.376766	0.202417	0.12023	0	0	-0.289013	0.0270298	0.222374	0.436302	-0.38214	0.20029	1.00858	0.889434	0	0	0.406246	-0.417713	0.202247	1.01582	0.770096	0	0
0.75	-0.415766	1.39626	-1.45112	0.875781	0.97311	0.936594	-0.164225	-0.0441132	0.0815985	0.932687	0.172851	0	0	0.206723	-0.115483	-0.388523	0.263839	0.127951	0	0	-0.288738	0.0103087	0.226459	0.438006	-0.384485	0.205759	1.00406	0.889999	0	0	0.414219	-0.419511	0.21258	1.01197	0.770624	0	0
0.76	-0.326177	1.40327	-1.54559	0.875943	0.95983	0.9357	-0.121321	-0.0754993	0.0729543	1.0075	0.128858	0	0	0.220978	-0.107572	-0.403585	0.317143	0.126251	0	0	-0.28117	-0.0105562	0.230225	0.439017	-0.385933	0.215415	0.999071	0.885527	0	0	0.417959	-0.424968	0.220742	1.01266	0.77027	0	0
0.77	-0.325498	1.40032	-1.54937	0.876455	0.947394	0.936277	-0.108807	-0.0467762	0.145664	1.04851	0.0998326	0	0	0.222072	-0.113646	-0.409756	0.355178	0.108991	0	0	-0.28652	-0.0130846	0.233268	0.442876	-0.388156	0.222853	0.995941	0.881511	0	0	0.420358	-0.426134	0.221033	1.01449	0.770801	0	0
